<?xml version="1.0" encoding="UTF-8"?>
<svg id="Layer_1" xmlns="http://www.w3.org/2000/svg" version="1.1" viewBox="0 0 239.4 57">
  <!-- Generator: Adobe Illustrator 29.1.0, SVG Export Plug-In . SVG Version: 2.1.0 Build 142)  -->
  <defs>
    <style>
      .st0 {
        fill: #fff;
      }

      .st1 {
        fill: #c1d82f;
      }
    </style>
  </defs>
  <polygon class="st0" points="32.6 30.2 32.6 37.6 61.8 19.7 65.1 10.3 32.6 30.2"/>
  <polygon class="st0" points="48.4 47.3 61.8 39.1 61.8 31.7 48.4 39.9 48.4 47.3"/>
  <polygon class="st0" points="48.4 57 65.2 46.7 61.8 41.4 48.4 49.5 48.4 57"/>
  <polygon class="st0" points="32.6 47.3 61.8 29.4 61.8 22 32.6 39.9 32.6 47.3"/>
  <polygon class="st0" points="30.7 48.4 16.8 57 16.8 49.5 24.7 44.7 30.7 48.4"/>
  <polygon class="st0" points="16.8 47.3 16.8 39.9 22.8 43.6 16.8 47.3"/>
  <polygon class="st1" points="34.4 48.4 48.4 57 48.4 49.5 40.5 44.7 34.4 48.4"/>
  <polygon class="st1" points="48.4 47.3 48.4 39.9 42.3 43.6 48.4 47.3"/>
  <polygon class="st1" points="32.6 30.2 32.6 37.6 3.4 19.7 0 10.3 32.6 30.2"/>
  <polygon class="st1" points="16.8 47.3 3.4 39.1 3.4 31.7 16.8 39.9 16.8 47.3"/>
  <polygon class="st1" points="16.8 57 0 46.7 3.4 41.4 16.8 49.5 16.8 57"/>
  <polygon class="st1" points="32.6 47.3 3.4 29.4 3.4 22 32.6 39.9 32.6 47.3"/>
  <polygon class="st1" points="58.2 4.8 32.6 20.5 7 4.8 .9 8.5 32.6 27.9 64.2 8.5 58.2 4.8"/>
  <polygon class="st1" points="50.2 0 32.6 10.8 14.9 0 8.9 3.7 32.6 18.2 56.3 3.7 50.2 0"/>
  <path class="st0" d="M74.3,12.1h3.7l3,4.8,3-4.9h3.7v12.5h-3.5v-7.2l-3.2,4.9h0l-3.2-4.9v7.2h-3.4v-12.5Z"/>
  <path class="st0" d="M94.8,12h3.3l5.3,12.6h-3.7l-.9-2.3h-4.9l-.9,2.3h-3.6l5.3-12.6ZM97.8,19.6l-1.4-3.5-1.4,3.6h2.8Z"/>
  <path class="st0" d="M106.5,15.2h-3.7v-3h11v3h-3.8v9.5h-3.5v-9.5Z"/>
  <path class="st0" d="M115.8,12.1h5.9c1.5-.1,3,.4,4.1,1.3.8.8,1.2,1.8,1.1,2.9h0c0,1.7-1,3.3-2.6,3.9l3,4.4h-4l-2.5-3.8h-1.5v3.8h-3.5v-12.5ZM121.6,18.1c1.2,0,1.9-.6,1.9-1.5h0c0-1-.7-1.5-1.9-1.5h-2.3v3h2.3Z"/>
  <path class="st0" d="M129.9,12.1h3.5v12.5h-3.5v-12.5Z"/>
  <path class="st0" d="M148,12.1l-4.1,6.1,4.3,6.4h-4l-2.4-3.8-2.4,3.8h-3.9l4.3-6.4-4.1-6.1h4l2.2,3.5,2.2-3.5h3.9Z"/>
  <path class="st0" d="M160.4,12h3.3l5.3,12.6h-3.7l-.9-2.2h-4.8l-.9,2.2h-3.6l5.3-12.6ZM163.4,19.6l-1.4-3.5-1.4,3.5h2.8Z"/>
  <path class="st0" d="M171,12.1h5.4c3.1,0,5.2,1.6,5.2,4.4h0c0,3-2.3,4.5-5.4,4.5h-1.7v3.6h-3.5v-12.5ZM176.1,18.3c1.2,0,2-.7,2-1.6h0c0-1.1-.8-1.6-2-1.6h-1.6v3.3h1.6Z"/>
  <path class="st0" d="M183.5,12.1h5.4c3.1,0,5.2,1.6,5.2,4.4h0c0,3-2.3,4.5-5.4,4.5h-1.7v3.6h-3.5v-12.5ZM188.6,18.3c1.2,0,2-.7,2-1.6h0c0-1.1-.8-1.6-2-1.6h-1.6v3.3h1.6Z"/>
  <path class="st0" d="M196,12.1h3.5v9.5h6.1v3h-9.5v-12.5Z"/>
  <path class="st0" d="M207.8,12.1h3.5v12.5h-3.5v-12.5Z"/>
  <path class="st0" d="M214.6,12.1h10.1v2.9h-6.6v1.9h6v2.7h-6v2h6.7v2.9h-10.1v-12.5Z"/>
  <path class="st0" d="M227.5,12.1h4.8c4.4,0,7,2.6,7,6.2h0c0,3.6-2.6,6.3-7.1,6.3h-4.8v-12.5ZM230.9,15.2v6.4h1.4c2.1,0,3.5-1.1,3.5-3.2h0c0-2-1.4-3.2-3.5-3.2h-1.4Z"/>
  <path class="st0" d="M77.3,35.6h-3.7v-3h11v3h-3.8v9.4h-3.5v-9.4Z"/>
  <path class="st0" d="M86.6,32.5h10.1v2.9h-6.7v1.9h6v2.7h-6v2h6.7v2.9h-10.1v-12.5Z"/>
  <path class="st0" d="M98.7,38.8h0c0-3.5,2.8-6.5,6.3-6.5,0,0,.2,0,.3,0,2.1,0,4.1.9,5.3,2.6l-2.6,2c-.6-.9-1.6-1.4-2.7-1.5-1.7,0-3.1,1.5-3,3.2,0,0,0,0,0,.1h0c-.1,1.7,1.1,3.2,2.8,3.3,0,0,.1,0,.2,0,1.1,0,2.2-.6,2.8-1.5l2.6,1.9c-2.1,3-6.2,3.8-9.2,1.7-1.8-1.2-2.8-3.2-2.8-5.3h0Z"/>
  <path class="st0" d="M112.4,32.5h3.5v4.7h4.4v-4.7h3.5v12.5h-3.5v-4.7h-4.4v4.7h-3.5v-12.5Z"/>
  <path class="st0" d="M127.2,32.5h3.2l5.1,6.6v-6.6h3.4v12.5h-3l-5.4-6.9v6.9h-3.4v-12.5Z"/>
  <path class="st0" d="M141,38.8h0c0-3.7,3-6.7,6.7-6.7,3.7,0,6.7,3,6.7,6.7h0c0,3.6-3,6.5-6.6,6.5,0,0-.1,0-.2,0-3.6.1-6.6-2.7-6.7-6.3,0,0,0-.2,0-.2ZM150.9,38.8h0c0-1.8-1.3-3.3-3.1-3.4,0,0,0,0-.1,0-1.8,0-3.2,1.4-3.2,3.2,0,0,0,0,0,.1h0c0,1.8,1.3,3.3,3.1,3.4,0,0,0,0,0,0,1.8,0,3.2-1.4,3.3-3.1,0,0,0-.1,0-.2h0Z"/>
  <path class="st0" d="M156.4,32.5h3.5v9.5h6.1v3h-9.5v-12.5Z"/>
  <path class="st0" d="M166.9,38.8h0c.2-3.7,3.4-6.6,7.1-6.4,3.4.2,6.2,2.9,6.4,6.4h0c0,3.7-3,6.7-6.7,6.7-3.7,0-6.7-3-6.7-6.7ZM176.8,38.8h0c0-1.8-1.3-3.3-3.1-3.4,0,0,0,0-.1,0-1.8,0-3.2,1.4-3.2,3.2,0,0,0,0,0,.1h0c0,1.8,1.3,3.3,3.1,3.4,0,0,0,0,.1,0,1.8,0,3.2-1.4,3.2-3.2,0,0,0-.1,0-.2h0Z"/>
  <path class="st0" d="M181.9,38.8h0c0-3.6,2.9-6.5,6.5-6.5,0,0,.2,0,.2,0,1.9,0,3.7.6,5.1,1.8l-2,2.5c-.8-.8-1.9-1.2-3-1.2-1.8,0-3.2,1.5-3.2,3.3,0,0,0,0,0,0h0c0,1.8,1.3,3.4,3.1,3.5,0,0,.2,0,.3,0,.7,0,1.4-.1,2-.5v-1.5h-2.4v-2.5h5.7v5.6c-1.5,1.3-3.4,2-5.4,2-4,0-6.9-2.7-6.9-6.5Z"/>
  <path class="st0" d="M196.8,32.5h3.5v12.5h-3.5v-12.5Z"/>
  <path class="st0" d="M203.6,32.5h10.1v2.9h-6.6v1.9h6v2.7h-6v2h6.7v3h-10.1v-12.6Z"/>
  <path class="st0" d="M215.1,43.2l1.9-2.3c1.1,1,2.6,1.5,4.1,1.5,1,0,1.4-.3,1.4-.9h0c0-.5-.4-.8-2.1-1.2-2.7-.6-4.7-1.4-4.7-3.9h0c0-2.3,1.9-4,4.9-4,1.9,0,3.7.5,5.2,1.6l-1.7,2.5c-1-.8-2.2-1.2-3.5-1.2-.8,0-1.2.3-1.2.8h0c0,.6.4.8,2.2,1.2,2.9.6,4.6,1.5,4.6,3.9h0c0,2.6-2,4.1-5.1,4.1-2.1,0-4.2-.7-5.9-2Z"/>
</svg>