<?xml version="1.0" encoding="UTF-8"?>
<svg id="Layer_1" xmlns="http://www.w3.org/2000/svg" version="1.1" viewBox="0 0 201 56">
  <!-- Generator: Adobe Illustrator 29.1.0, SVG Export Plug-In . SVG Version: 2.1.0 Build 142)  -->
  <defs>
    <style>
      .st0 {
        fill: #fff;
      }

      .st1 {
        fill: #f79633;
      }
    </style>
  </defs>
  <polygon class="st0" points="35.7 29.7 35.7 37 64.3 19.5 67.6 10.1 35.7 29.7"/>
  <polygon class="st0" points="51.2 46.5 64.3 38.5 64.3 31.2 51.2 39.2 51.2 46.5"/>
  <polygon class="st0" points="51.2 56 67.7 45.9 64.3 40.7 51.2 48.7 51.2 56"/>
  <polygon class="st0" points="35.7 46.5 64.3 28.9 64.3 21.7 35.7 39.2 35.7 46.5"/>
  <polygon class="st0" points="33.9 47.6 20.2 56 20.2 48.7 28 44 33.9 47.6"/>
  <polygon class="st0" points="20.2 46.5 20.2 39.2 26.1 42.9 20.2 46.5"/>
  <polygon class="st1" points="37.5 47.6 51.2 56 51.2 48.7 43.4 44 37.5 47.6"/>
  <polygon class="st1" points="51.2 46.5 51.2 39.2 45.3 42.9 51.2 46.5"/>
  <polygon class="st1" points="35.7 29.7 35.7 37 7 19.5 3.8 10.1 35.7 29.7"/>
  <polygon class="st1" points="20.2 46.5 7 38.5 7 31.2 20.2 39.2 20.2 46.5"/>
  <polygon class="st1" points="20.2 56 3.7 45.9 7 40.7 20.2 48.7 20.2 56"/>
  <polygon class="st1" points="35.7 46.5 7 28.9 7 21.7 35.7 39.2 35.7 46.5"/>
  <polygon class="st1" points="60.8 4.8 35.7 20.2 10.6 4.8 4.6 8.4 35.7 27.5 66.7 8.4 60.8 4.8"/>
  <polygon class="st1" points="53 .1 35.7 10.7 18.3 .1 18.3 .1 12.4 3.7 35.7 18 59 3.7 53 .1"/>
  <polygon class="st0" points="76.6 31.8 85 31.8 85 33 77.9 33 77.9 37 84.3 37 84.3 38.2 77.9 38.2 77.9 42.3 85.2 42.3 85.2 43.5 76.6 43.5 76.6 31.8"/>
  <polygon class="st0" points="88.6 31.8 89.8 31.8 97.2 41.2 97.2 31.8 98.5 31.8 98.5 43.5 97.5 43.5 89.9 34 89.9 43.5 88.6 43.5 88.6 31.8"/>
  <path class="st0" d="M101.6,37.7h0c0-3.2,2.3-6.1,5.9-6.1s3.2.6,4.4,1.6l-.8,1c-.9-.8-1.9-1.3-3.5-1.3-2.6,0-4.5,2.2-4.5,4.8h0c0,2.8,1.8,4.9,4.7,4.9s2.5-.5,3.4-1.2v-2.9h-3.5v-1.2h4.8v4.7c-1.1,1-2.8,1.8-4.7,1.8-3.7,0-5.9-2.7-5.9-6h-.1Z"/>
  <polygon class="st0" points="116.1 43.5 117.4 43.5 117.4 31.8 116.1 31.8 116.1 43.5"/>
  <polygon class="st0" points="121.6 31.8 122.8 31.8 130.2 41.2 130.2 31.8 131.5 31.8 131.5 43.5 130.4 43.5 122.9 34 122.9 43.5 121.6 43.5 121.6 31.8"/>
  <polygon class="st0" points="135.3 31.8 143.8 31.8 143.8 33 136.7 33 136.7 37 143 37 143 38.2 136.7 38.2 136.7 42.3 143.9 42.3 143.9 43.5 135.3 43.5 135.3 31.8"/>
  <polygon class="st0" points="147.2 31.8 155.6 31.8 155.6 33 148.5 33 148.5 37 154.9 37 154.9 38.2 148.5 38.2 148.5 42.3 155.8 42.3 155.8 43.5 147.2 43.5 147.2 31.8"/>
  <path class="st0" d="M163.9,37.8c1.8,0,3-.9,3-2.4h0c0-1.4-1.1-2.3-3-2.3h-3.6v4.7h3.6,0ZM158.9,31.8h5c1.4,0,2.6.4,3.3,1.2.6.6.9,1.4.9,2.3h0c0,1.9-1.3,3.1-3.2,3.4l3.6,4.8h-1.6l-3.4-4.5h-3.3v4.5h-1.3v-11.7Z"/>
  <polygon class="st0" points="171.9 43.5 173.2 43.5 173.2 31.8 171.9 31.8 171.9 43.5"/>
  <polygon class="st0" points="177.2 31.8 178.4 31.8 185.8 41.2 185.8 31.8 187.1 31.8 187.1 43.5 186.1 43.5 178.5 34 178.5 43.5 177.2 43.5 177.2 31.8"/>
  <path class="st0" d="M190.4,37.7h0c0-3.2,2.3-6.1,5.9-6.1s3.2.6,4.4,1.6l-.8,1c-.9-.8-1.9-1.3-3.5-1.3-2.6,0-4.5,2.2-4.5,4.8h0c0,2.8,1.8,4.9,4.7,4.9s2.5-.5,3.4-1.2v-2.9h-3.5v-1.2h4.8v4.7c-1.1,1-2.8,1.8-4.7,1.8-3.7,0-5.9-2.7-5.9-6h0Z"/>
  <polygon class="st0" points="76.6 12 80.2 12 83.1 16.7 86 12 89.6 12 89.6 24.3 86.2 24.3 86.2 17.2 83.1 22 83.1 22 80 17.2 80 24.3 76.6 24.3 76.6 12"/>
  <path class="st0" d="M99.9,19.4l-1.3-3.5-1.4,3.5h2.8ZM96.9,11.9h3.3l5.2,12.4h-3.7l-.8-2.2h-4.7l-.8,2.2h-3.5l5.2-12.4h0Z"/>
  <polygon class="st0" points="108.3 15 104.6 15 104.6 12 115.4 12 115.4 15 111.7 15 111.7 24.3 108.3 24.3 108.3 15"/>
  <path class="st0" d="M123.1,17.8c1.1,0,1.8-.6,1.8-1.5h0c0-1-.7-1.5-1.8-1.5h-2.3v3h2.3ZM117.4,12h5.8c1.9,0,3.2.5,4,1.3s1.1,1.6,1.1,2.8h0c0,2-1,3.2-2.5,3.9l2.9,4.3h-3.9l-2.5-3.7h-1.5v3.7h-3.4v-12.3h0Z"/>
  <polygon class="st0" points="131.2 24.3 134.6 24.3 134.6 12 131.2 12 131.2 24.3"/>
  <polygon class="st0" points="149 12 145 18 149.2 24.3 145.2 24.3 142.9 20.5 140.6 24.3 136.7 24.3 140.9 18 136.9 12 140.8 12 143 15.4 145.2 12 149 12"/>
  <path class="st0" d="M164,18.1c1.2,0,2-.6,2-1.6h0c0-1.1-.8-1.6-2-1.6h-1.6v3.3h1.6ZM159,12h5.3c3.1,0,5.1,1.6,5.1,4.3h0c0,3-2.3,4.5-5.2,4.5h-1.7v3.5h-3.4v-12.3h0Z"/>
  <path class="st0" d="M175.1,15v6.3h1.4c2,0,3.4-1.1,3.4-3.1h0c0-2-1.3-3.2-3.4-3.2h-1.4ZM171.7,12h4.7c4.4,0,6.9,2.5,6.9,6.1h0c0,3.6-2.5,6.2-7,6.2h-4.7v-12.3Z"/>
  <polygon class="st0" points="185.9 12 189.5 12 192.5 16.7 195.4 12 199 12 199 24.3 195.6 24.3 195.6 17.2 192.5 22 192.4 22 189.3 17.2 189.3 24.3 185.9 24.3 185.9 12"/>
</svg>