<?xml version="1.0" encoding="UTF-8"?>
<svg id="Layer_1" xmlns="http://www.w3.org/2000/svg" version="1.1" viewBox="0 0 240 56">
  <!-- Generator: Adobe Illustrator 29.1.0, SVG Export Plug-In . SVG Version: 2.1.0 Build 142)  -->
  <defs>
    <style>
      .st0 {
        fill: #fff;
      }

      .st1 {
        fill: #43a0cc;
      }
    </style>
  </defs>
  <polygon class="st0" points="72.6 24.1 76.2 24.1 79.1 28.8 82 24.1 85.5 24.1 85.5 36.3 82.2 36.3 82.2 29.3 79.1 34.1 79 34.1 75.9 29.3 75.9 36.3 72.6 36.3 72.6 24.1"/>
  <path class="st0" d="M95.6,31.5l-1.3-3.4-1.4,3.4h2.7ZM92.6,24h3.2l5.2,12.3h-3.7l-.8-2.2h-4.7l-.8,2.2h-3.5l5.2-12.3h0Z"/>
  <polygon class="st0" points="104.1 27 100.4 27 100.4 24.1 111.1 24.1 111.1 27 107.5 27 107.5 36.3 104.1 36.3 104.1 27"/>
  <path class="st0" d="M118.8,30c1.1,0,1.8-.6,1.8-1.5h0c0-1.1-.7-1.5-1.8-1.5h-2.2v3h2.2ZM113.2,24.1h5.8c1.9,0,3.2.5,4,1.3s1.1,1.6,1.1,2.8h0c0,1.9-1,3.1-2.5,3.8l2.9,4.3h-3.9l-2.5-3.7h-1.5v3.7h-3.4s0-12.2,0-12.2Z"/>
  <polygon class="st0" points="126.9 36.3 130.3 36.3 130.3 24.1 126.9 24.1 126.9 36.3"/>
  <polygon class="st0" points="144.6 24.1 140.6 30.1 144.8 36.3 140.9 36.3 138.6 32.6 136.2 36.3 132.4 36.3 136.6 30.1 132.6 24.1 136.4 24.1 138.6 27.5 140.8 24.1 144.6 24.1"/>
  <path class="st0" d="M152.6,34.5l1.9-2.2c1.2,1,2.5,1.5,3.9,1.5s1.4-.4,1.4-.8h0c0-.5-.4-.8-2.1-1.2-2.6-.6-4.6-1.3-4.6-3.8h0c0-2.3,1.8-4,4.7-4s3.7.6,5.1,1.6l-1.7,2.4c-1.1-.8-2.3-1.2-3.4-1.2s-1.2.4-1.2.8h0c0,.6.4.8,2.1,1.3,2.8.6,4.6,1.5,4.6,3.8h0c0,2.5-2,4-4.9,4s-4.2-.7-5.7-2v-.2Z"/>
  <polygon class="st0" points="165.9 24.1 175.8 24.1 175.8 27 169.2 27 169.2 28.8 175.1 28.8 175.1 31.5 169.2 31.5 169.2 33.4 175.8 33.4 175.8 36.3 165.9 36.3 165.9 24.1"/>
  <path class="st0" d="M184.3,30c1.1,0,1.8-.6,1.8-1.5h0c0-1.1-.7-1.5-1.8-1.5h-2.2v3h2.2ZM178.6,24.1h5.8c1.9,0,3.2.5,4,1.3s1.1,1.6,1.1,2.8h0c0,2-1,3.2-2.5,3.9l2.9,4.3h-3.9l-2.5-3.7h-1.5v3.7h-3.4v-12.2h0Z"/>
  <polygon class="st0" points="190.4 24.1 194.2 24.1 197 31.8 199.7 24.1 203.5 24.1 198.5 36.4 195.4 36.4 190.4 24.1"/>
  <polygon class="st0" points="205.1 36.3 208.6 36.3 208.6 24.1 205.1 24.1 205.1 36.3"/>
  <path class="st0" d="M211,30.3h0c0-3.6,2.7-6.3,6.4-6.3s4.1,1.1,5.2,2.5l-2.5,2c-.7-.8-1.5-1.4-2.7-1.4s-3,1.5-3,3.2h0c0,1.8,1.2,3.2,3,3.2s2-.6,2.7-1.5l2.5,1.8c-1.1,1.6-2.7,2.7-5.4,2.7s-6.3-2.7-6.3-6.3h.1Z"/>
  <polygon class="st0" points="224.5 24.1 234.4 24.1 234.4 27 227.9 27 227.9 28.8 233.8 28.8 233.8 31.5 227.9 31.5 227.9 33.4 234.5 33.4 234.5 36.3 224.5 36.3 224.5 24.1"/>
  <polygon class="st0" points="31.9 29.8 31.9 37.1 60.4 19.6 63.6 10.4 31.9 29.8"/>
  <polygon class="st0" points="47.3 46.5 60.4 38.6 60.4 31.3 47.3 39.3 47.3 46.5"/>
  <polygon class="st0" points="47.3 56 63.7 45.9 60.4 40.7 47.3 48.8 47.3 56"/>
  <polygon class="st0" points="31.9 46.5 60.4 29.1 60.4 21.8 31.9 39.3 31.9 46.5"/>
  <polygon class="st0" points="30.1 47.6 16.4 56 16.4 48.8 24.2 44 30.1 47.6"/>
  <polygon class="st0" points="16.4 46.5 16.4 39.3 22.3 42.9 16.4 46.5"/>
  <polygon class="st1" points="33.7 47.6 47.3 56 47.3 48.8 39.6 44 33.7 47.6"/>
  <polygon class="st1" points="47.3 46.5 47.3 39.3 41.4 42.9 47.3 46.5"/>
  <polygon class="st1" points="31.9 29.8 31.9 37.1 3.4 19.6 .1 10.4 31.9 29.8"/>
  <polygon class="st1" points="16.4 46.5 3.4 38.6 3.4 31.3 16.4 39.3 16.4 46.5"/>
  <polygon class="st1" points="16.4 56 0 45.9 3.4 40.7 16.4 48.8 16.4 56"/>
  <polygon class="st1" points="31.9 46.5 3.4 29.1 3.4 21.8 31.9 39.3 31.9 46.5"/>
  <polygon class="st1" points="56.9 5.1 31.9 20.4 6.9 5.1 1 8.7 31.9 27.6 62.8 8.7 56.9 5.1"/>
  <polygon class="st1" points="49.1 .4 31.9 10.9 14.6 .4 14.6 .4 8.7 4 31.9 18.2 55 4 49.1 .4"/>
</svg>