<svg xmlns="http://www.w3.org/2000/svg" viewBox="0 0 239.35 56.96">
    <title>Asset 4</title>
    <polygon points="32.58 30.18 32.58 37.59 61.75 19.74 65.09 10.28 32.58 30.18" style="fill:#c1d82f"/>
    <polygon points="48.41 47.27 61.75 39.11 61.75 31.7 48.41 39.86 48.41 47.27" style="fill:#c1d82f"/>
    <polygon points="48.41 56.95 65.16 46.7 61.75 41.37 48.41 49.55 48.41 56.95" style="fill:#c1d82f"/>
    <polygon points="32.58 47.27 61.75 29.43 61.75 22.02 32.58 39.86 32.58 47.27" style="fill:#c1d82f"/>
    <polygon points="30.73 48.4 16.75 56.95 16.75 49.55 24.67 44.7 30.73 48.4" style="fill:#c1d82f"/>
    <polygon points="16.75 47.27 16.75 39.86 22.81 43.57 16.75 47.27" style="fill:#c1d82f"/>
    <polygon points="34.44 48.4 48.41 56.95 48.41 49.55 40.49 44.7 34.44 48.4" style="fill:#231f20"/>
    <polygon points="48.41 47.27 48.41 39.86 42.35 43.57 48.41 47.27" style="fill:#231f20"/>
    <polygon points="32.58 30.18 32.58 37.59 3.41 19.74 0.07 10.28 32.58 30.18" style="fill:#231f20"/>
    <polygon points="16.75 47.27 3.41 39.11 3.41 31.7 16.75 39.86 16.75 47.27" style="fill:#231f20"/>
    <polygon points="16.75 56.95 0 46.7 3.41 41.37 16.75 49.55 16.75 56.95" style="fill:#231f20"/>
    <polygon points="32.58 47.27 3.41 29.43 3.41 22.02 32.58 39.86 32.58 47.27" style="fill:#231f20"/>
    <polygon points="58.16 4.84 32.58 20.5 7 4.84 0.94 8.54 32.58 27.91 64.22 8.54 58.16 4.84" style="fill:#231f20"/>
    <polygon points="50.25 0 32.58 10.81 14.91 0 8.86 3.71 32.58 18.23 56.3 3.71 50.25 0" style="fill:#231f20"/>
    <path d="M74.27,12.12h3.66l3,4.85,3-4.85h3.66V24.64H84.11V17.45l-3.2,4.89h-.07l-3.18-4.87v7.17H74.27Z" style="fill:#fff"/>
    <path d="M94.8,12h3.34l5.33,12.61H99.75l-.89-2.26H94l-.9,2.26H89.49Zm3,7.65-1.4-3.54L95,19.68Z" style="fill:#fff"/>
    <path d="M106.51,15.16h-3.74v-3h11v3H110v9.48h-3.47Z" style="fill:#fff"/>
    <path d="M115.78,12.12h5.92a5.56,5.56,0,0,1,4.08,1.34,3.93,3.93,0,0,1,1.1,2.92v0a4,4,0,0,1-2.57,3.86l3,4.37h-4l-2.52-3.8h-1.54v3.8h-3.47Zm5.78,6c1.16,0,1.86-.57,1.86-1.48v0c0-1-.74-1.5-1.88-1.5h-2.29v3Z" style="fill:#fff"/>
    <path d="M129.89,12.12h3.47V24.64h-3.47Z" style="fill:#fff"/>
    <path d="M148,12.12l-4.11,6.1,4.29,6.42h-4l-2.39-3.8-2.42,3.8h-3.9l4.3-6.37-4.12-6.15h4l2.2,3.52,2.25-3.52Z" style="fill:#fff"/>
    <path d="M160.41,12h3.34l5.33,12.6h-3.72l-.89-2.25h-4.84l-.89,2.25h-3.63Zm3,7.65-1.39-3.53-1.41,3.53Z" style="fill:#fff"/>
    <path d="M171,12.12h5.38c3.14,0,5.18,1.63,5.18,4.38v0c0,3-2.27,4.52-5.36,4.52h-1.73v3.57H171Zm5.13,6.22c1.21,0,2-.66,2-1.64v0c0-1.07-.77-1.62-2-1.62h-1.64v3.3Z" style="fill:#fff"/>
    <path d="M183.5,12.12h5.38c3.14,0,5.18,1.63,5.18,4.38v0c0,3-2.27,4.52-5.36,4.52H187v3.57H183.5Zm5.13,6.22c1.21,0,2-.66,2-1.64v0c0-1.07-.77-1.62-2-1.62H187v3.3Z" style="fill:#fff"/>
    <path d="M196,12.12h3.47V21.6h6.06v3H196Z" style="fill:#fff"/>
    <path d="M207.8,12.12h3.47V24.63H207.8Z" style="fill:#fff"/>
    <path d="M214.62,12.12h10.06v2.93h-6.63V17h6V19.7h-6v2h6.72v2.94H214.62Z" style="fill:#fff"/>
    <path d="M227.47,12.12h4.84c4.45,0,7,2.58,7,6.19v0c0,3.61-2.62,6.29-7.11,6.29h-4.77Zm3.47,3.06v6.38h1.41c2.09,0,3.47-1.14,3.47-3.16v0c0-2-1.38-3.18-3.47-3.18Z" style="fill:#fff"/>
    <path d="M77.32,35.57H73.59v-3h11v3H80.79V45H77.32Z" style="fill:#fff"/>
    <path d="M86.6,32.53H96.66v2.94H90v1.91h6v2.73H90v2h6.72V45H86.6Z" style="fill:#fff"/>
    <path d="M98.67,38.83v0a6.42,6.42,0,0,1,6.58-6.51,6.17,6.17,0,0,1,5.31,2.6l-2.61,2a3.42,3.42,0,0,0-2.74-1.46,3.11,3.11,0,0,0-3,3.32v0a3.09,3.09,0,0,0,3,3.34A3.42,3.42,0,0,0,108,40.61l2.61,1.86a6.58,6.58,0,0,1-12-3.64Z" style="fill:#fff"/>
    <path d="M112.39,32.53h3.47v4.69h4.45V32.53h3.47V45h-3.47V40.29h-4.45V45h-3.47Z" style="fill:#fff"/>
    <path d="M127.17,32.53h3.24l5.15,6.62V32.53H139V45h-3l-5.36-6.86V45h-3.44Z" style="fill:#fff"/>
    <path d="M141,38.83v0a6.74,6.74,0,0,1,13.48,0v0a6.55,6.55,0,0,1-6.76,6.5A6.49,6.49,0,0,1,141,38.83Zm9.92,0v0a3.23,3.23,0,0,0-3.2-3.38,3.19,3.19,0,0,0-3.18,3.34v0a3.25,3.25,0,0,0,3.21,3.38A3.19,3.19,0,0,0,151,38.83Z" style="fill:#fff"/>
    <path d="M156.44,32.51h3.47V42H166v3h-9.53Z" style="fill:#fff"/>
    <path d="M166.93,38.8v0a6.75,6.75,0,0,1,13.48,0v0a6.74,6.74,0,0,1-13.48,0Zm9.92,0v0a3.22,3.22,0,0,0-3.2-3.37,3.19,3.19,0,0,0-3.18,3.34v0a3.25,3.25,0,0,0,3.22,3.38A3.18,3.18,0,0,0,176.85,38.8Z" style="fill:#fff"/>
    <path d="M181.93,38.8v0a6.49,6.49,0,0,1,6.72-6.5,7.28,7.28,0,0,1,5.07,1.8l-2,2.47a4.38,4.38,0,0,0-3-1.18,3.27,3.27,0,0,0-3.2,3.41v0a3.32,3.32,0,0,0,3.4,3.49,3.44,3.44,0,0,0,2-.52V40.25h-2.44V37.71h5.73v5.61a8.3,8.3,0,0,1-5.43,2C184.82,45.27,181.93,42.59,181.93,38.8Z" style="fill:#fff"/>
    <path d="M196.8,32.51h3.47V45H196.8Z" style="fill:#fff"/><path d="M203.58,32.51h10.06v2.93H207v1.91h6v2.74h-6v2h6.72v3H203.58Z" style="fill:#fff"/>
    <path d="M215.08,43.16,217,40.85a6.47,6.47,0,0,0,4.06,1.51c1,0,1.45-.32,1.45-.86v0c0-.53-.41-.8-2.13-1.21-2.66-.61-4.72-1.36-4.72-3.92v0c0-2.32,1.85-4,4.85-4A7.84,7.84,0,0,1,225.66,34l-1.73,2.45a6.07,6.07,0,0,0-3.5-1.24c-.84,0-1.25.34-1.25.81v0c0,.57.43.82,2.18,1.22,2.86.62,4.64,1.55,4.64,3.89v0c0,2.56-2,4.08-5.05,4.08A8.78,8.78,0,0,1,215.08,43.16Z" style="fill:#fff"/>
</svg>