<?xml version="1.0" encoding="UTF-8"?>
<!DOCTYPE svg PUBLIC "-//W3C//DTD SVG 1.1//EN" "http://www.w3.org/Graphics/SVG/1.1/DTD/svg11.dtd">
<!-- Creator: CorelDRAW X6 -->
<svg xmlns="http://www.w3.org/2000/svg" xml:space="preserve" width="2.79166in" height="0.77778in" version="1.1" style="shape-rendering:geometricPrecision; text-rendering:geometricPrecision; image-rendering:optimizeQuality; fill-rule:evenodd; clip-rule:evenodd"
viewBox="0 0 2792 778"
 xmlns:xlink="http://www.w3.org/1999/xlink">
 <defs>
  <style type="text/css">
   <![CDATA[
    .fil1 {fill:#373435;fill-rule:nonzero}
    .fil0 {fill:#F79633;fill-rule:nonzero}
   ]]>
  </style>
 </defs>
 <g id="Layer_x0020_1">
  <metadata id="CorelCorpID_0Corel-Layer"/>
  <polygon class="fil0" points="453,406 453,509 858,261 904,129 " />
  <polygon class="fil0" points="672,643 858,530 858,427 672,540 "/>
  <polygon class="fil0" points="672,778 905,635 858,561 672,675 "/>
  <polygon class="fil0" points="453,643 858,395 858,292 453,540 "/>
  <polygon class="fil0" points="427,659 233,778 233,675 343,608 "/>
  <polygon class="fil0" points="233,643 233,540 317,592 "/>
  <polygon class="fil1" points="478,659 672,778 672,675 562,608 "/>
  <polygon class="fil1" points="672,643 672,540 588,592 "/>
  <polygon class="fil1" points="453,406 453,509 47,261 1,129 "/>
  <polygon class="fil1" points="233,643 47,530 47,427 233,540 "/>
  <polygon class="fil1" points="233,778 0,635 47,561 233,675 "/>
  <polygon class="fil1" points="453,643 47,395 47,292 453,540 "/>
  <polygon class="fil1" points="808,54 453,271 97,54 13,105 453,374 892,105 "/>
  <polygon class="fil1" points="698,-13 453,137 207,-13 207,-13 123,38 453,240 782,38 698,-13 "/>
  <polygon class="fil1" points="1032,436 1151,436 1151,453 1050,453 1050,509 1141,509 1141,526 1050,526 1050,584 1153,584 1153,601 1032,601 " style="fill:#fff"/>
  <polygon class="fil1" points="1202,436 1219,436 1323,569 1323,436 1342,436 1342,601 1327,601 1220,466 1220,601 1202,601 " style="fill:#fff"/>
  <path class="fil1" d="M1385 519l0 0c0,-45 33,-86 83,-86 28,0 45,8 62,22l-12 14c-13,-11 -27,-19 -50,-19 -37,0 -63,31 -63,68l0 0c0,39 25,69 66,69 19,0 36,-7 48,-17l0 -41 -50 0 0 -17 68 0 0 66c-15,14 -39,25 -66,25 -52,0 -84,-38 -84,-85z" style="fill:#fff"/>
  <polygon class="fil1" points="1590,601 1609,601 1609,436 1590,436 " style="fill:#fff"/>
  <polygon class="fil1" points="1668,436 1686,436 1790,569 1790,436 1808,436 1808,601 1793,601 1687,466 1687,601 1668,601 " style="fill:#fff"/>
  <polygon class="fil1" points="1863,436 1983,436 1983,453 1882,453 1882,509 1972,509 1972,526 1882,526 1882,584 1984,584 1984,601 1863,601 " style="fill:#fff"/>
  <polygon class="fil1" points="2031,436 2150,436 2150,453 2049,453 2049,509 2140,509 2140,526 2049,526 2049,584 2152,584 2152,601 2031,601 " style="fill:#fff"/>
  <path class="fil1" d="M2267 520c25,0 43,-13 43,-34l0 0c0,-20 -16,-33 -42,-33l-51 0 0 67 51 0zm-70 -84l71 0c20,0 37,6 47,17 8,8 13,20 13,33l0 0c0,27 -19,44 -45,48l51 68 -23 0 -48 -64 -47 0 0 64 -19 0 0 -166z" style="fill:#fff"/>
  <polygon class="fil1" points="2380,601 2399,601 2399,436 2380,436 " style="fill:#fff"/>
  <polygon class="fil1" points="2455,436 2473,436 2577,569 2577,436 2596,436 2596,601 2581,601 2474,466 2474,601 2455,601 " style="fill:#fff"/>
  <path class="fil1" d="M2642 519l0 0c0,-45 33,-86 83,-86 28,0 45,8 62,22l-12 14c-13,-11 -27,-19 -50,-19 -37,0 -63,31 -63,68l0 0c0,39 25,69 66,69 19,0 36,-7 48,-17l0 -41 -50 0 0 -17 68 0 0 66c-15,14 -39,25 -67,25 -52,0 -84,-38 -84,-85z" style="fill:#fff"/>
  <polygon class="fil1" points="1032,155 1083,155 1124,222 1165,155 1216,155 1216,329 1168,329 1168,229 1124,297 1123,297 1079,229 1079,329 1032,329 " style="fill:#fff"/>
  <path class="fil1" d="M1361 260l-19 -49 -20 49 39 0zm-42 -106l46 0 74 175 -52 0 -12 -31 -67 0 -12 31 -50 0 74 -175z" style="fill:#fff"/>
  <polygon class="fil1" points="1480,197 1428,197 1428,155 1580,155 1580,197 1528,197 1528,329 1480,329 " style="fill:#fff"/>
  <path class="fil1" d="M1689 238c16,0 26,-8 26,-21l0 0c0,-14 -10,-21 -26,-21l-32 0 0 42 32 0zm-80 -83l82 0c27,0 45,7 57,19 10,10 15,23 15,40l0 1c0,27 -14,44 -36,54l41 61 -55 0 -35 -53 -21 0 0 53 -48 0 0 -174z" style="fill:#fff"/>
  <polygon class="fil1" points="1804,329 1852,329 1852,155 1804,155 " style="fill:#fff"/>
  <polygon class="fil1" points="2056,155 1999,240 2059,329 2003,329 1970,276 1937,329 1882,329 1942,240 1885,155 1940,155 1971,204 2002,155 " style="fill:#fff"/>
  <path class="fil1" d="M2269 241c17,0 28,-9 28,-23l0 0c0,-15 -11,-23 -28,-23l-23 0 0 46 23 0zm-71 -86l75 0c44,0 72,23 72,61l0 1c0,41 -32,63 -74,63l-24 0 0 50 -48 0 0 -174z" style="fill:#fff"/>
  <path class="fil1" d="M2425 197l0 89 20 0c29,0 48,-16 48,-44l0 -1c0,-28 -19,-44 -48,-44l-20 0zm-48 -42l67 0c62,0 98,36 98,86l0 1c0,50 -36,87 -99,87l-66 0 0 -174z" style="fill:#fff"/>
  <polygon class="fil1" points="2579,155 2630,155 2672,222 2713,155 2764,155 2764,329 2716,329 2716,229 2672,297 2671,297 2627,229 2627,329 2579,329 " style="fill:#fff"/>
 </g>
</svg>
