<?xml version="1.0" encoding="UTF-8"?>
<svg id="Layer_1" xmlns="http://www.w3.org/2000/svg" version="1.1" viewBox="0 0 197 56">
  <!-- Generator: Adobe Illustrator 29.1.0, SVG Export Plug-In . SVG Version: 2.1.0 Build 142)  -->
  <defs>
    <style>
      .st0 {
        fill: #ed3237;
      }

      .st1 {
        fill: #fff;
      }
    </style>
  </defs>
  <polygon class="st1" points="35.7 29.7 35.7 37 64.3 19.5 67.6 10.2 35.7 29.7"/>
  <polygon class="st1" points="51.2 46.5 64.3 38.5 64.3 31.2 51.2 39.2 51.2 46.5"/>
  <polygon class="st1" points="51.2 56 67.7 45.9 64.3 40.7 51.2 48.7 51.2 56"/>
  <polygon class="st1" points="35.7 46.5 64.3 29 64.3 21.7 35.7 39.2 35.7 46.5"/>
  <polygon class="st1" points="33.9 47.6 20.2 56 20.2 48.7 28 44 33.9 47.6"/>
  <polygon class="st1" points="20.2 46.5 20.2 39.2 26.1 42.9 20.2 46.5"/>
  <polygon class="st0" points="37.5 47.6 51.2 56 51.2 48.7 43.4 44 37.5 47.6"/>
  <polygon class="st0" points="51.2 46.5 51.2 39.2 45.3 42.9 51.2 46.5"/>
  <polygon class="st0" points="35.7 29.7 35.7 37 7.1 19.5 3.8 10.2 35.7 29.7"/>
  <polygon class="st0" points="20.2 46.5 7.1 38.5 7.1 31.2 20.2 39.2 20.2 46.5"/>
  <polygon class="st0" points="20.2 56 3.8 45.9 7.1 40.7 20.2 48.7 20.2 56"/>
  <polygon class="st0" points="35.7 46.5 7.1 29 7.1 21.7 35.7 39.2 35.7 46.5"/>
  <polygon class="st0" points="60.8 4.9 35.7 20.2 10.6 4.9 4.7 8.5 35.7 27.5 66.7 8.5 60.8 4.9"/>
  <polygon class="st0" points="53 .1 35.7 10.7 18.4 .1 18.4 .1 12.4 3.7 35.7 18 59 3.7 53 .1"/>
  <polygon class="st1" points="76.6 23.9 80.2 23.9 83.1 28.7 86 23.9 89.6 23.9 89.6 36.2 86.2 36.2 86.2 29.2 83.1 34 83.1 34 80 29.2 80 36.2 76.6 36.2 76.6 23.9"/>
  <path class="st1" d="M99.7,31.4l-1.3-3.5-1.4,3.5h2.8ZM96.8,23.9h3.2l5.2,12.4h-3.7l-.8-2.2h-4.7l-.8,2.2h-3.5l5.2-12.4h0Z"/>
  <polygon class="st1" points="108.3 26.9 104.6 26.9 104.6 23.9 115.3 23.9 115.3 26.9 111.7 26.9 111.7 36.2 108.3 36.2 108.3 26.9"/>
  <path class="st1" d="M123,29.9c1.1,0,1.8-.6,1.8-1.5h0c0-1.1-.7-1.6-1.8-1.6h-2.3v3h2.3ZM117.4,24h5.8c1.9,0,3.2.5,4,1.3s1.1,1.6,1.1,2.8h0c0,1.9-1,3.1-2.5,3.8l2.9,4.3h-3.9l-2.5-3.7h-1.5v3.7h-3.4v-12.3Z"/>
  <polygon class="st1" points="131.2 36.2 134.5 36.2 134.5 23.9 131.2 23.9 131.2 36.2"/>
  <polygon class="st1" points="148.9 23.9 144.9 29.9 149.2 36.2 145.2 36.2 142.9 32.5 140.5 36.2 136.7 36.2 140.9 30 136.9 23.9 140.8 23.9 142.9 27.4 145.1 23.9 148.9 23.9"/>
  <polygon class="st1" points="157.8 23.9 161 23.9 166 30.4 166 23.9 169.4 23.9 169.4 36.2 166.4 36.2 161.1 29.5 161.1 36.2 157.8 36.2 157.8 23.9"/>
  <path class="st1" d="M179.5,31.4l-1.3-3.5-1.4,3.5h2.8ZM176.5,23.9h3.2l5.2,12.4h-3.7l-.8-2.2h-4.7l-.8,2.2h-3.5l5.2-12.4h0Z"/>
  <path class="st1" d="M185.4,30.2h0c0-3.7,2.8-6.4,6.4-6.4s4.1,1.1,5.2,2.5l-2.5,2c-.7-.8-1.5-1.4-2.7-1.4s-2.9,1.5-2.9,3.2h0c0,1.8,1.2,3.2,2.9,3.2s2-.6,2.8-1.5l2.5,1.8c-1.1,1.6-2.7,2.8-5.4,2.8s-6.4-2.7-6.4-6.4h0Z"/>
</svg>